<svg width="34" height="34" viewBox="0 0 34 34" fill="none" xmlns="http://www.w3.org/2000/svg">
<circle cx="17" cy="17" r="17" fill="#828282"/>
<circle cx="17" cy="17" r="14.5714" fill="#D9D9D9"/>
<path fill-rule="evenodd" clip-rule="evenodd" d="M18.6763 9.31627C18.2488 7.56124 15.7512 7.56124 15.3237 9.31627C15.2599 9.57999 15.1347 9.82492 14.9583 10.0311C14.7819 10.2373 14.5594 10.399 14.3087 10.5029C14.0581 10.6068 13.7865 10.6501 13.5159 10.6293C13.2454 10.6084 12.9836 10.5239 12.7519 10.3828C11.2083 9.44227 9.44201 11.2085 10.3825 12.7521C10.9901 13.7488 10.4512 15.0494 9.31713 15.325C7.56096 15.7514 7.56096 18.25 9.31713 18.6753C9.58093 18.7392 9.8259 18.8645 10.0321 19.041C10.2383 19.2175 10.3999 19.4402 10.5038 19.691C10.6076 19.9418 10.6507 20.2135 10.6297 20.4841C10.6086 20.7547 10.5239 21.0165 10.3825 21.2482C9.44201 22.7917 11.2083 24.558 12.7519 23.6175C12.9836 23.4761 13.2454 23.3914 13.516 23.3704C13.7866 23.3493 14.0583 23.3924 14.3091 23.4963C14.5599 23.6001 14.7826 23.7617 14.9591 23.9679C15.1356 24.1741 15.2609 24.4191 15.3248 24.6829C15.7512 26.439 18.2499 26.439 18.6752 24.6829C18.7393 24.4192 18.8647 24.1744 19.0413 23.9684C19.2178 23.7623 19.4405 23.6008 19.6912 23.497C19.9419 23.3932 20.2135 23.35 20.4841 23.3709C20.7546 23.3919 21.0164 23.4764 21.2481 23.6175C22.7917 24.558 24.558 22.7917 23.6175 21.2482C23.4763 21.0165 23.3918 20.7547 23.3709 20.4842C23.35 20.2136 23.3932 19.942 23.497 19.6913C23.6008 19.4406 23.7623 19.2179 23.9683 19.0414C24.1744 18.8648 24.4192 18.7394 24.6829 18.6753C26.439 18.2489 26.439 15.7502 24.6829 15.325C24.4191 15.2611 24.1741 15.1358 23.9679 14.9593C23.7617 14.7828 23.6001 14.5601 23.4962 14.3093C23.3924 14.0585 23.3493 13.7868 23.3703 13.5162C23.3914 13.2456 23.4761 12.9838 23.6175 12.7521C24.558 11.2085 22.7917 9.44227 21.2481 10.3828C21.0164 10.5242 20.7546 10.6089 20.484 10.6299C20.2134 10.651 19.9417 10.6078 19.6909 10.504C19.4401 10.4002 19.2174 10.2386 19.0409 10.0324C18.8644 9.82616 18.7391 9.58119 18.6752 9.3174L18.6763 9.31627Z" stroke="#61458C" stroke-width="2"/>
<path d="M19 17C19 18.1046 18.1046 19 17 19C15.8954 19 15 18.1046 15 17C15 15.8954 15.8954 15 17 15C18.1046 15 19 15.8954 19 17Z" stroke="#61458C" stroke-width="2"/>
</svg>
